<svg xmlns="http://www.w3.org/2000/svg" viewBox="0 0 512 512"><path d="M295.8 81.8L307.8 82.6L319.5 84.3L330.8 86.6L341.8 89.7L352.3 93.5L362.4 97.8L372.1 102.8L381.2 108.3L389.7 114.3L397.7 120.8L405.2 127.7L412.0 134.9L418.2 142.5L423.8 150.3L428.8 158.3L433.1 166.5L436.8 174.8L439.9 183.3L442.4 191.7L444.3 200.2L445.5 208.6L446.2 217.0L446.3 225.2L445.9 233.3L445.0 241.2L443.5 248.9L441.5 256.3L439.1 263.5L436.3 270.4L433.1 276.9L429.4 283.1L425.5 289.0L421.2 294.4L416.7 299.5L411.9 304.2L406.9 308.5L401.7 312.3L396.3 315.7L390.8 318.7L385.2 321.3L379.6 323.5L373.9 325.2L368.3 326.5L362.6 327.5L357.0 328.0L351.5 328.1L346.1 327.9L340.8 327.3L335.6 326.3L330.6 325.1L325.8 323.5L321.2 321.6L316.8 319.5L312.7 317.1L308.8 314.5L305.1 311.6L301.7 308.6L298.6 305.4L295.8 302.1L293.3 298.7L291.0 295.1L289.0 291.5L287.3 287.8L285.9 284.1L284.8 280.3L284.0 276.6L283.4 272.9L283.1 269.2L283.1 265.6L283.3 262.1L283.7 258.6L284.4 255.3L285.3 252.1L286.4 249.0L287.7 246.1L289.1 243.3L290.7 240.7L292.5 238.2L294.3 235.9L296.3 233.9L298.4 232.0L300.6 230.3L302.8 228.8L305.1 227.4L307.4 226.3L309.8 225.4L312.1 224.6L314.5 224.1L316.8 223.7L319.1 223.5L321.3 223.5L323.5 223.6L325.6 223.9L327.6 224.3L329.6 224.9L331.4 225.6L333.2 226.4L334.8 227.3L336.3 228.3L337.7 229.4L339.0 230.6L340.1 231.8L341.2 233.0L342.0 234.4L342.8 235.7L343.4 237.0L343.9 238.4L344.3 239.7L344.6 241.1L344.7 242.4L342.3 244.2L341.7 243.6L341.0 243.0L340.3 242.5L339.6 242.0L338.9 241.6L338.1 241.2L337.4 240.9L336.6 240.6L335.8 240.4L335.0 240.2L334.2 240.0L333.4 239.9L332.6 239.9L331.7 239.9L330.9 239.9L330.1 240.0L329.3 240.1L328.5 240.3L327.7 240.5L326.9 240.7L326.1 241.0L325.3 241.4L324.6 241.8L323.8 242.2L323.1 242.7L322.4 243.2L321.7 243.8L321.1 244.4L320.4 245.1L319.8 245.8L319.3 246.6L318.7 247.4L318.2 248.2L317.8 249.1L317.4 250.0L317.0 251.0L316.7 252.0L316.4 253.1L316.2 254.2L316.1 255.3L316.0 256.4L316.0 257.6L316.1 258.8L316.2 260.1L316.4 261.3L316.8 262.6L317.2 263.9L317.7 265.2L318.2 266.5L318.9 267.7L319.7 269.0L320.6 270.3L321.6 271.5L322.7 272.7L323.9 273.8L325.2 274.9L326.6 276.0L328.1 276.9L329.8 277.8L331.5 278.6L333.3 279.3L335.3 280.0L337.3 280.4L339.4 280.8L341.6 281.0L343.8 281.1L346.1 281.1L348.5 280.9L351.0 280.5L353.4 279.9L355.9 279.1L358.4 278.2L360.9 277.1L363.4 275.7L365.9 274.2L368.3 272.4L370.7 270.4L373.0 268.2L375.2 265.8L377.3 263.2L379.2 260.3L381.0 257.3L382.7 254.0L384.1 250.6L385.4 246.9L386.4 243.1L387.2 239.1L387.7 234.9L388.0 230.6L388.0 226.2L387.6 221.7L386.9 217.0L385.9 212.3L384.5 207.6L382.8 202.8L380.7 198.1L378.2 193.3L375.3 188.6L372.0 184.0L368.3 179.6L364.2 175.2L359.7 171.1L354.8 167.2L349.5 163.5L343.8 160.1L337.7 157.0L331.3 154.2L324.5 151.8L317.4 149.9L310.0 148.3Z" fill="#C89B3C"/><path d="M216.2 81.8L204.2 82.6L192.5 84.3L181.2 86.6L170.2 89.7L159.7 93.5L149.6 97.8L139.9 102.8L130.8 108.3L122.3 114.3L114.3 120.8L106.8 127.7L100.0 134.9L93.8 142.5L88.2 150.3L83.2 158.3L78.9 166.5L75.2 174.8L72.1 183.3L69.6 191.7L67.7 200.2L66.5 208.6L65.8 217.0L65.7 225.2L66.1 233.3L67.0 241.2L68.5 248.9L70.5 256.3L72.9 263.5L75.7 270.4L78.9 276.9L82.6 283.1L86.5 289.0L90.8 294.4L95.3 299.5L100.1 304.2L105.1 308.5L110.3 312.3L115.7 315.7L121.2 318.7L126.8 321.3L132.4 323.5L138.1 325.2L143.7 326.5L149.4 327.5L155.0 328.0L160.5 328.1L165.9 327.9L171.2 327.3L176.4 326.3L181.4 325.1L186.2 323.5L190.8 321.6L195.2 319.5L199.3 317.1L203.2 314.5L206.9 311.6L210.3 308.6L213.4 305.4L216.2 302.1L218.7 298.7L221.0 295.1L223.0 291.5L224.7 287.8L226.1 284.1L227.2 280.3L228.0 276.6L228.6 272.9L228.9 269.2L228.9 265.6L228.7 262.1L228.3 258.6L227.6 255.3L226.7 252.1L225.6 249.0L224.3 246.1L222.9 243.3L221.3 240.7L219.5 238.2L217.7 235.9L215.7 233.9L213.6 232.0L211.4 230.3L209.2 228.8L206.9 227.4L204.6 226.3L202.2 225.4L199.9 224.6L197.5 224.1L195.2 223.7L192.9 223.5L190.7 223.5L188.5 223.6L186.4 223.9L184.4 224.3L182.4 224.9L180.6 225.6L178.8 226.4L177.2 227.3L175.7 228.3L174.3 229.4L173.0 230.6L171.9 231.8L170.8 233.0L170.0 234.4L169.2 235.7L168.6 237.0L168.1 238.4L167.7 239.7L167.4 241.1L167.3 242.4L169.7 244.2L170.3 243.6L171.0 243.0L171.7 242.5L172.4 242.0L173.1 241.6L173.9 241.2L174.6 240.9L175.4 240.6L176.2 240.4L177.0 240.2L177.8 240.0L178.6 239.9L179.4 239.9L180.3 239.9L181.1 239.9L181.9 240.0L182.7 240.1L183.5 240.3L184.3 240.5L185.1 240.7L185.9 241.0L186.7 241.4L187.4 241.8L188.2 242.2L188.9 242.7L189.6 243.2L190.3 243.8L190.9 244.4L191.6 245.1L192.2 245.8L192.7 246.6L193.3 247.4L193.8 248.2L194.2 249.1L194.6 250.0L195.0 251.0L195.3 252.0L195.6 253.1L195.8 254.2L195.9 255.3L196.0 256.4L196.0 257.6L195.9 258.8L195.8 260.1L195.6 261.3L195.2 262.6L194.8 263.9L194.3 265.2L193.8 266.5L193.1 267.7L192.3 269.0L191.4 270.3L190.4 271.5L189.3 272.7L188.1 273.8L186.8 274.9L185.4 276.0L183.9 276.9L182.2 277.8L180.5 278.6L178.7 279.3L176.7 280.0L174.7 280.4L172.6 280.8L170.4 281.0L168.2 281.1L165.9 281.1L163.5 280.9L161.0 280.5L158.6 279.9L156.1 279.1L153.6 278.2L151.1 277.1L148.6 275.7L146.1 274.2L143.7 272.4L141.3 270.4L139.0 268.2L136.8 265.8L134.7 263.2L132.8 260.3L131.0 257.3L129.3 254.0L127.9 250.6L126.6 246.9L125.6 243.1L124.8 239.1L124.3 234.9L124.0 230.6L124.0 226.2L124.4 221.7L125.1 217.0L126.1 212.3L127.5 207.6L129.2 202.8L131.3 198.1L133.8 193.3L136.7 188.6L140.0 184.0L143.7 179.6L147.8 175.2L152.3 171.1L157.2 167.2L162.5 163.5L168.2 160.1L174.3 157.0L180.7 154.2L187.5 151.8L194.6 149.9L202.0 148.3Z" fill="#C89B3C"/><path d="M228 158L284 158L279 296L256 414L233 296L228 158Z" fill="#C89B3C"/></svg>
